<?xml version="1.0" encoding="utf-8"?>
<!-- Generator: Adobe Illustrator 24.1.0, SVG Export Plug-In . SVG Version: 6.00 Build 0)  -->
<svg version="1.0" id="Ebene_1" xmlns="http://www.w3.org/2000/svg" xmlns:xlink="http://www.w3.org/1999/xlink" x="0px" y="0px"
	 viewBox="0 0 550 560" style="enable-background:new 0 0 550 560;" xml:space="preserve">
<style type="text/css">
	.st0{fill:#64378C;}
</style>
<g>
	<g>
		<path class="st0" d="M3.4,17.91V2.73c0-0.25,0.22-0.46,0.48-0.46h2.39c0.26,0,0.48,0.21,0.48,0.46v5.75c0,0.14,0.1,0.23,0.24,0.23
			h3.59c0.14,0,0.24-0.09,0.24-0.23V2.73c0-0.25,0.22-0.46,0.48-0.46h2.39c0.26,0,0.48,0.21,0.48,0.46v15.18
			c0,0.25-0.22,0.46-0.48,0.46H11.3c-0.26,0-0.48-0.21-0.48-0.46v-5.75c0-0.14-0.1-0.23-0.24-0.23H6.99c-0.14,0-0.24,0.09-0.24,0.23
			v5.75c0,0.25-0.34,0.46-0.6,0.46H3.88C3.62,18.37,3.4,18.16,3.4,17.91z"/>
		<path class="st0" d="M18.14,16.81c-0.77-1.01-1.05-2.16-1.05-4.19c0-2.02,0.29-3.17,1.05-4.19c0.84-1.13,2.32-1.82,4-1.82
			c1.67,0,3.16,0.69,4,1.82c0.77,1.01,1.05,2.16,1.05,4.19c0,2.02-0.29,3.17-1.05,4.19c-0.84,1.13-2.32,1.82-4,1.82
			C20.46,18.62,18.97,17.93,18.14,16.81z M23.64,15.08c0.29-0.39,0.38-0.99,0.38-2.46s-0.1-2.07-0.38-2.46
			c-0.31-0.39-0.74-0.55-1.51-0.55c-0.74,0-1.2,0.16-1.51,0.55c-0.29,0.39-0.38,0.99-0.38,2.46s0.1,2.07,0.38,2.46
			c0.31,0.39,0.77,0.55,1.51,0.55C22.9,15.63,23.33,15.47,23.64,15.08z"/>
		<path class="st0" d="M30.48,16.81c-0.77-1.01-1.05-2.16-1.05-4.19c0-2.02,0.29-3.17,1.05-4.19c0.84-1.13,2.32-1.82,4-1.82
			c1.46,0,2.63,0.35,3.45,1.03c0.93,0.78,1.46,2.05,1.46,3.47c0,0.28-0.17,0.46-0.41,0.46h-2.2c-0.26,0-0.43-0.14-0.45-0.37
			c-0.1-0.64-0.24-0.99-0.5-1.24c-0.29-0.25-0.72-0.37-1.34-0.37c-0.74,0-1.2,0.16-1.51,0.55c-0.29,0.39-0.38,0.99-0.38,2.46
			s0.1,2.07,0.38,2.46c0.31,0.39,0.77,0.55,1.51,0.55c0.67,0,1.05-0.09,1.32-0.3c0.29-0.23,0.41-0.53,0.53-1.36
			c0.02-0.21,0.19-0.32,0.45-0.32h2.2c0.24,0,0.41,0.18,0.41,0.46c0,1.29-0.41,2.41-1.12,3.17c-0.84,0.87-2.15,1.33-3.78,1.33
			C32.8,18.62,31.32,17.93,30.48,16.81z"/>
		<path class="st0" d="M41.86,17.91V2.48c0-0.25,0.22-0.46,0.48-0.46h2.15c0.26,0,0.48,0.21,0.48,0.46v4.14
			c0,0.3,0.17,0.53,0.45,0.53c0.24,0,0.86-0.53,2.06-0.53c2.58,0,4.19,1.61,4.19,4.25v7.04c0,0.25-0.22,0.46-0.48,0.46h-2.15
			c-0.26,0-0.48-0.21-0.48-0.46V11.1c0-0.99-0.65-1.59-1.79-1.59c-1.12,0-1.79,0.57-1.79,1.49v6.9c0,0.25-0.22,0.46-0.48,0.46h-2.15
			C42.08,18.37,41.86,18.16,41.86,17.91z"/>
		<path class="st0" d="M53.82,14.55c0-0.25,0.19-0.41,0.48-0.41h2.06c0.29,0,0.48,0.16,0.48,0.41c0,0.99,0.62,1.47,1.89,1.47
			c1.17,0,1.77-0.34,1.77-1.01c0-0.6-0.53-0.87-2.42-1.29c-2.61-0.55-3.83-1.77-3.83-3.77c0-1.98,1.84-3.33,4.47-3.33
			c2.78,0,4.55,1.4,4.55,3.63c0,0.25-0.19,0.41-0.48,0.41h-1.94c-0.29,0-0.48-0.16-0.48-0.41c0-0.71-0.57-1.1-1.63-1.1
			c-0.86,0-1.41,0.35-1.41,0.9c0,0.57,0.43,0.8,2.44,1.29c2.87,0.67,3.83,1.56,3.83,3.61c0,2.3-1.82,3.68-4.88,3.68
			C55.64,18.62,53.82,17.11,53.82,14.55z"/>
		<path class="st0" d="M66.62,16.81c-0.77-1.01-1.05-2.16-1.05-4.19c0-2.02,0.29-3.17,1.05-4.19c0.84-1.13,2.32-1.82,4-1.82
			c1.46,0,2.63,0.35,3.45,1.03c0.93,0.78,1.46,2.05,1.46,3.47c0,0.28-0.17,0.46-0.41,0.46h-2.2c-0.26,0-0.43-0.14-0.45-0.37
			c-0.1-0.64-0.24-0.99-0.5-1.24c-0.29-0.25-0.72-0.37-1.34-0.37c-0.74,0-1.2,0.16-1.51,0.55c-0.29,0.39-0.38,0.99-0.38,2.46
			s0.1,2.07,0.38,2.46c0.31,0.39,0.77,0.55,1.51,0.55c0.67,0,1.05-0.09,1.32-0.3c0.29-0.23,0.41-0.53,0.53-1.36
			c0.02-0.21,0.19-0.32,0.45-0.32h2.2c0.24,0,0.41,0.18,0.41,0.46c0,1.29-0.41,2.41-1.12,3.17c-0.84,0.87-2.15,1.33-3.78,1.33
			C68.94,18.62,67.46,17.93,66.62,16.81z"/>
		<path class="st0" d="M78.01,17.91V2.48c0-0.25,0.22-0.46,0.48-0.46h2.15c0.26,0,0.48,0.21,0.48,0.46v4.14
			c0,0.3,0.17,0.53,0.45,0.53c0.24,0,0.86-0.53,2.06-0.53c2.58,0,4.19,1.61,4.19,4.25v7.04c0,0.25-0.22,0.46-0.48,0.46h-2.15
			c-0.26,0-0.48-0.21-0.48-0.46V11.1c0-0.99-0.65-1.59-1.79-1.59c-1.12,0-1.79,0.57-1.79,1.49v6.9c0,0.25-0.22,0.46-0.48,0.46h-2.15
			C78.22,18.37,78.01,18.16,78.01,17.91z"/>
		<path class="st0" d="M100.49,7.33v10.58c0,0.25-0.22,0.46-0.48,0.46h-1.2c-0.19,0-0.31-0.05-0.43-0.16
			c-0.19-0.25-0.31-0.6-0.65-0.6c-0.57,0-0.96,1.01-2.87,1.01c-2.58,0-4.19-1.61-4.19-4.25V7.33c0-0.25,0.22-0.46,0.48-0.46h2.15
			c0.26,0,0.48,0.21,0.48,0.46v6.81c0,1.01,0.67,1.59,1.79,1.59c1.12,0,1.79-0.57,1.79-1.49v-6.9c0-0.25,0.22-0.46,0.48-0.46h2.15
			C100.28,6.87,100.49,7.08,100.49,7.33z"/>
		<path class="st0" d="M103.6,17.91V2.48c0-0.25,0.22-0.46,0.48-0.46h2.15c0.26,0,0.48,0.21,0.48,0.46v15.43
			c0,0.25-0.22,0.46-0.48,0.46h-2.15C103.82,18.37,103.6,18.16,103.6,17.91z"/>
		<path class="st0" d="M110.44,16.81c-0.77-1.01-1.05-2.16-1.05-4.19c0-2.02,0.29-3.17,1.05-4.19c0.84-1.13,2.32-1.82,4-1.82
			c3.13,0,4.88,1.95,4.88,5.45v1.01c0,0.25-0.22,0.46-0.48,0.46h-6.2c-0.14,0-0.24,0.09-0.24,0.23c0,1.52,0.62,2.21,2.03,2.21
			c0.98,0,1.56-0.34,1.84-1.1c0.1-0.25,0.29-0.39,0.55-0.39h2.03c0.31,0,0.48,0.21,0.41,0.51c-0.6,2.3-2.37,3.63-4.83,3.63
			C112.76,18.62,111.28,17.93,110.44,16.81z M116.23,11.24c0.14,0,0.24-0.07,0.24-0.21c0-1.13-0.89-1.98-2.03-1.98
			c-1.27,0-2.08,0.78-2.08,1.98c0,0.14,0.1,0.21,0.24,0.21H116.23z"/>
		<path class="st0" d="M127.14,17.91V2.73c0-0.25,0.21-0.46,0.48-0.46h2.37c0.26,0,0.48,0.21,0.48,0.46v5.63
			c0,0.09,0.05,0.14,0.12,0.14c0.05,0,0.1-0.05,0.17-0.14l4.02-5.86c0.07-0.11,0.17-0.23,0.53-0.23h2.61c0.31,0,0.5,0.23,0.5,0.51
			c0,0.12-0.02,0.23-0.1,0.32l-4.79,6.58c-0.1,0.14-0.14,0.25-0.14,0.37c0,0.14,0.05,0.25,0.14,0.39l4.86,6.99
			c0.1,0.14,0.14,0.25,0.14,0.44c0,0.28-0.21,0.51-0.6,0.51h-2.58c-0.36,0-0.48-0.16-0.62-0.37l-3.92-6.16
			c-0.07-0.11-0.14-0.21-0.21-0.21c-0.07,0-0.12,0.05-0.12,0.14v6.14c0,0.25-0.22,0.46-0.48,0.46h-2.37
			C127.35,18.37,127.14,18.16,127.14,17.91z"/>
		<path class="st0" d="M139.34,14.83c0-1.79,1.36-3.59,4.12-3.59h2.44c0.14,0,0.24-0.09,0.24-0.23v-0.37c0-0.94-0.79-1.4-1.84-1.4
			c-0.5,0-1.48,0.11-1.65,0.76c-0.1,0.39-0.22,0.44-0.65,0.44h-1.72c-0.26,0-0.48-0.21-0.48-0.46c0-1.75,1.75-3.36,4.62-3.36
			c2.89,0,4.79,1.49,4.79,4.16v7.13c0,0.25-0.21,0.46-0.48,0.46h-1.2c-0.14,0-0.29-0.05-0.33-0.16c-0.1-0.18-0.26-0.46-0.55-0.46
			c-0.43,0-1.08,0.87-3.11,0.87C141.06,18.62,139.34,17.24,139.34,14.83z M146.25,14.46v-0.55c0-0.14-0.1-0.23-0.24-0.23h-2.23
			c-1.03,0-1.41,0.53-1.41,1.15c0,0.85,0.72,1.22,1.58,1.22C145.2,16.05,146.25,15.66,146.25,14.46z"/>
		<path class="st0" d="M152.18,17.91V7.33c0-0.25,0.22-0.46,0.48-0.46h1.2c0.19,0,0.43,0.12,0.5,0.3c0.14,0.39,0.24,0.97,0.65,0.97
			c0.74,0,1.05-1.26,3.42-1.26h0.81c0.26,0,0.48,0.21,0.48,0.46v2.18c0,0.25-0.21,0.46-0.48,0.46h-0.84c-1.79,0-3.11,0.8-3.11,2.55
			v5.38c0,0.25-0.21,0.46-0.48,0.46h-2.15C152.4,18.37,152.18,18.16,152.18,17.91z"/>
		<path class="st0" d="M161.63,17.91V2.48c0-0.25,0.21-0.46,0.48-0.46h2.15c0.26,0,0.48,0.21,0.48,0.46v15.43
			c0,0.25-0.22,0.46-0.48,0.46h-2.15C161.85,18.37,161.63,18.16,161.63,17.91z"/>
		<path class="st0" d="M167.01,14.55c0-0.25,0.19-0.41,0.48-0.41h2.06c0.29,0,0.48,0.16,0.48,0.41c0,0.99,0.62,1.47,1.89,1.47
			c1.17,0,1.77-0.34,1.77-1.01c0-0.6-0.53-0.87-2.42-1.29c-2.61-0.55-3.83-1.77-3.83-3.77c0-1.98,1.84-3.33,4.47-3.33
			c2.78,0,4.55,1.4,4.55,3.63c0,0.25-0.19,0.41-0.48,0.41h-1.94c-0.29,0-0.48-0.16-0.48-0.41c0-0.71-0.57-1.1-1.63-1.1
			c-0.86,0-1.41,0.35-1.41,0.9c0,0.57,0.43,0.8,2.44,1.29c2.87,0.67,3.83,1.56,3.83,3.61c0,2.3-1.82,3.68-4.88,3.68
			C168.83,18.62,167.01,17.11,167.01,14.55z"/>
		<path class="st0" d="M179.19,17.91V7.33c0-0.25,0.22-0.46,0.48-0.46h1.2c0.19,0,0.43,0.12,0.5,0.3c0.14,0.39,0.24,0.97,0.65,0.97
			c0.74,0,1.05-1.26,3.42-1.26h0.81c0.26,0,0.48,0.21,0.48,0.46v2.18c0,0.25-0.21,0.46-0.48,0.46h-0.84c-1.79,0-3.11,0.8-3.11,2.55
			v5.38c0,0.25-0.21,0.46-0.48,0.46h-2.15C179.4,18.37,179.19,18.16,179.19,17.91z"/>
		<path class="st0" d="M198.33,7.33v10.58c0,0.25-0.21,0.46-0.48,0.46h-1.2c-0.19,0-0.31-0.05-0.43-0.16
			c-0.19-0.25-0.31-0.6-0.65-0.6c-0.57,0-0.96,1.01-2.87,1.01c-2.58,0-4.19-1.61-4.19-4.25V7.33c0-0.25,0.21-0.46,0.48-0.46h2.15
			c0.26,0,0.48,0.21,0.48,0.46v6.81c0,1.01,0.67,1.59,1.79,1.59s1.79-0.57,1.79-1.49v-6.9c0-0.25,0.21-0.46,0.48-0.46h2.15
			C198.11,6.87,198.33,7.08,198.33,7.33z"/>
		<path class="st0" d="M201.43,17.91V2.48c0-0.25,0.21-0.46,0.48-0.46h2.15c0.26,0,0.48,0.21,0.48,0.46v4.14
			c0,0.3,0.17,0.53,0.45,0.53c0.24,0,0.86-0.53,2.06-0.53c2.58,0,4.19,1.61,4.19,4.25v7.04c0,0.25-0.22,0.46-0.48,0.46h-2.15
			c-0.26,0-0.48-0.21-0.48-0.46V11.1c0-0.99-0.65-1.59-1.79-1.59c-1.12,0-1.79,0.57-1.79,1.49v6.9c0,0.25-0.22,0.46-0.48,0.46h-2.15
			C201.65,18.37,201.43,18.16,201.43,17.91z"/>
		<path class="st0" d="M214.85,16.81c-0.77-1.01-1.05-2.16-1.05-4.19c0-2.02,0.29-3.17,1.05-4.19c0.84-1.13,2.32-1.82,4-1.82
			c3.13,0,4.88,1.95,4.88,5.45v1.01c0,0.25-0.21,0.46-0.48,0.46h-6.2c-0.14,0-0.24,0.09-0.24,0.23c0,1.52,0.62,2.21,2.03,2.21
			c0.98,0,1.56-0.34,1.84-1.1c0.1-0.25,0.29-0.39,0.55-0.39h2.03c0.31,0,0.48,0.21,0.41,0.51c-0.6,2.3-2.37,3.63-4.83,3.63
			C217.17,18.62,215.69,17.93,214.85,16.81z M220.64,11.24c0.14,0,0.24-0.07,0.24-0.21c0-1.13-0.89-1.98-2.03-1.98
			c-1.27,0-2.08,0.78-2.08,1.98c0,0.14,0.1,0.21,0.24,0.21H220.64z"/>
	</g>
	<g>
		<path class="st0" d="M3.57,39.16V28.24c0-0.25,0.22-0.46,0.48-0.46h0.57c0.26,0,0.48,0.21,0.48,0.46v10.92
			c0,1.84,1.58,3.47,3.61,3.47s3.61-1.63,3.61-3.47V28.24c0-0.25,0.22-0.46,0.48-0.46h0.57c0.26,0,0.48,0.21,0.48,0.46v10.92
			c0,2.74-2.3,4.94-5.14,4.94S3.57,41.9,3.57,39.16z"/>
		<path class="st0" d="M17.54,43.42V32.84c0-0.25,0.22-0.46,0.48-0.46h0.38c0.14,0,0.24,0.07,0.34,0.16
			c0.12,0.21,0.24,0.46,0.48,0.46c0.65,0,0.86-0.85,3.18-0.85c2.27,0,4.04,1.29,4.04,3.82v7.45c0,0.25-0.22,0.46-0.48,0.46h-0.45
			c-0.26,0-0.48-0.21-0.48-0.46v-7.24c0-1.84-1.32-2.67-3.04-2.67c-1.72,0-3.04,0.83-3.04,2.67v7.24c0,0.25-0.22,0.46-0.48,0.46
			h-0.45C17.75,43.88,17.54,43.67,17.54,43.42z"/>
		<path class="st0" d="M29.52,29.28v-1.36c0-0.18,0.17-0.37,0.38-0.37h1.39c0.22,0,0.38,0.18,0.38,0.37v1.36
			c0,0.21-0.17,0.37-0.38,0.37H29.9C29.69,29.64,29.52,29.48,29.52,29.28z M30.84,43.88h-0.48c-0.34,0-0.48-0.21-0.48-0.46V32.84
			c0-0.25,0.14-0.46,0.48-0.46h0.48c0.34,0,0.48,0.21,0.48,0.46v10.58C31.32,43.67,31.17,43.88,30.84,43.88z"/>
		<path class="st0" d="M37.8,43.53l-4.14-10.39c-0.07-0.16-0.1-0.28-0.1-0.37c0-0.21,0.17-0.39,0.45-0.39h0.62
			c0.22,0,0.36,0.09,0.45,0.35l3.56,9.27c0.05,0.14,0.12,0.18,0.19,0.18c0.07,0,0.17-0.05,0.22-0.18l3.56-9.27
			c0.1-0.25,0.24-0.35,0.45-0.35h0.62c0.29,0,0.45,0.18,0.45,0.39c0,0.09-0.02,0.21-0.1,0.37l-4.14,10.39
			c-0.1,0.23-0.24,0.34-0.45,0.34h-1.22C38.04,43.88,37.89,43.76,37.8,43.53z"/>
		<path class="st0" d="M46.67,42.38c-0.77-1.13-1.03-2.21-1.03-4.25c0-1.86,0.29-2.94,1.1-4.16c0.79-1.17,2.13-1.82,3.8-1.82
			c2.99,0,4.83,1.93,4.83,5.04v1.03c0,0.25-0.22,0.46-0.48,0.46h-7.51c-0.14,0-0.24,0.09-0.24,0.23c0,2.46,1.24,3.84,3.45,3.84
			c1.53,0,2.75-0.57,3.21-2.16c0.07-0.25,0.29-0.39,0.55-0.39h0.48c0.29,0,0.45,0.18,0.41,0.46c-0.29,2.05-2.18,3.45-4.64,3.45
			C48.8,44.11,47.44,43.51,46.67,42.38z M53.64,37.39c0.14,0,0.24-0.09,0.24-0.23c0-2.35-1.2-3.66-3.3-3.66
			c-2.08,0-3.4,1.4-3.4,3.66c0,0.14,0.1,0.23,0.24,0.23H53.64z"/>
		<path class="st0" d="M58.51,43.42V32.84c0-0.25,0.22-0.46,0.48-0.46h0.31c0.26,0,0.41,0.14,0.48,0.46c0.07,0.3,0.07,0.8,0.43,0.8
			c0.62,0,1.05-1.26,3.23-1.26h0.29c0.26,0,0.48,0.21,0.48,0.46v0.48c0,0.25-0.22,0.46-0.48,0.46h-0.31c-1.53,0-3.49,0.83-3.49,3.89
			v5.75c0,0.25-0.22,0.46-0.48,0.46h-0.45C58.73,43.88,58.51,43.67,58.51,43.42z"/>
		<path class="st0" d="M65.11,40.13c0-0.25,0.22-0.46,0.48-0.46h0.48c0.26,0,0.48,0.21,0.48,0.46c0,1.68,1.2,2.69,3.21,2.69
			c1.99,0,3.13-0.74,3.13-2.02c0-1.29-0.77-1.79-3.47-2.32c-2.66-0.51-3.78-1.47-3.78-3.24c0-1.79,1.77-3.08,4.19-3.08
			c2.61,0,4.23,1.31,4.23,3.45c0,0.25-0.22,0.46-0.48,0.46h-0.48c-0.26,0-0.48-0.21-0.48-0.46c0-1.47-0.91-2.18-2.8-2.18
			c-1.67,0-2.68,0.69-2.68,1.82c0,1.06,0.69,1.49,3.35,2.09c2.94,0.67,3.83,1.47,3.83,3.47c0,2.02-1.79,3.31-4.57,3.31
			C66.89,44.11,65.11,42.59,65.11,40.13z"/>
		<path class="st0" d="M76.81,29.28v-1.36c0-0.18,0.17-0.37,0.38-0.37h1.39c0.22,0,0.38,0.18,0.38,0.37v1.36
			c0,0.21-0.17,0.37-0.38,0.37h-1.39C76.98,29.64,76.81,29.48,76.81,29.28z M78.13,43.88h-0.48c-0.33,0-0.48-0.21-0.48-0.46V32.84
			c0-0.25,0.14-0.46,0.48-0.46h0.48c0.33,0,0.48,0.21,0.48,0.46v10.58C78.61,43.67,78.46,43.88,78.13,43.88z"/>
		<path class="st0" d="M83.53,40.2v-6.12c0-0.14-0.1-0.23-0.24-0.23h-1.94c-0.26,0-0.48-0.21-0.48-0.46v-0.44
			c0-0.25,0.22-0.46,0.48-0.46h1.94c0.14,0,0.24-0.09,0.24-0.23V28.7c0-0.25,0.22-0.46,0.48-0.46h0.48c0.26,0,0.48,0.21,0.48,0.46
			v3.56c0,0.14,0.1,0.23,0.24,0.23h3.01c0.26,0,0.48,0.21,0.48,0.46v0.44c0,0.25-0.22,0.46-0.48,0.46h-3.01
			c-0.14,0-0.24,0.09-0.24,0.23v6.12c0,1.56,0.57,2.32,2.27,2.32h1.22c0.26,0,0.48,0.21,0.48,0.46v0.44c0,0.25-0.22,0.46-0.48,0.46
			h-1.22C84.75,43.88,83.53,42.84,83.53,40.2z"/>
		<path class="st0" d="M92.79,48.11c0-0.11,0.02-0.23,0.07-0.34l1.67-4.37c0.05-0.11,0.07-0.18,0.07-0.23
			c0-0.07-0.02-0.14-0.07-0.25l-4.38-9.77c-0.07-0.16-0.1-0.28-0.1-0.37c0-0.21,0.17-0.39,0.45-0.39h0.67
			c0.22,0,0.33,0.07,0.45,0.35l3.66,8.42c0.05,0.11,0.07,0.14,0.12,0.14c0.05,0,0.07-0.02,0.12-0.14l3.18-8.42
			c0.12-0.28,0.24-0.35,0.45-0.35h0.67c0.29,0,0.45,0.18,0.45,0.39c0,0.09-0.02,0.21-0.1,0.37l-5.98,14.99
			c-0.1,0.25-0.24,0.35-0.45,0.35h-0.53C92.93,48.48,92.79,48.34,92.79,48.11z"/>
		<path class="st0" d="M107.62,42.04c-0.62-0.97-0.84-1.84-0.84-3.91c0-2.07,0.19-2.97,0.84-3.91c0.89-1.29,2.3-2.07,4.04-2.07
			c1.75,0,3.21,0.76,4.04,2.07c0.65,0.94,0.84,1.84,0.84,3.91c0,2.07-0.19,2.97-0.84,3.91c-0.84,1.31-2.3,2.07-4.04,2.07
			C109.92,44.11,108.46,43.35,107.62,42.04z M114.61,40.98c0.33-0.67,0.43-1.29,0.43-2.85c0-1.56-0.1-2.18-0.43-2.85
			c-0.53-1.08-1.65-1.77-2.94-1.77s-2.39,0.69-2.94,1.77c-0.33,0.67-0.43,1.29-0.43,2.85c0,1.56,0.1,2.18,0.43,2.85
			c0.55,1.08,1.65,1.77,2.94,1.77S114.08,42.06,114.61,40.98z"/>
		<path class="st0" d="M120.7,43.42v-9.34c0-0.14-0.1-0.23-0.24-0.23h-2.08c-0.26,0-0.48-0.21-0.48-0.46v-0.44
			c0-0.25,0.22-0.46,0.48-0.46h2.08c0.14,0,0.24-0.09,0.24-0.23v-0.41c0-2.64,1.58-4.3,4.07-4.3h0.12c0.26,0,0.48,0.21,0.48,0.46
			v0.37c0,0.25-0.22,0.46-0.48,0.46h-0.12c-1.65,0-2.63,1.13-2.63,3.01v0.41c0,0.14,0.1,0.23,0.24,0.23h2.73
			c0.26,0,0.48,0.21,0.48,0.46v0.44c0,0.25-0.22,0.46-0.48,0.46h-2.73c-0.14,0-0.24,0.09-0.24,0.23v9.34c0,0.25-0.22,0.46-0.48,0.46
			h-0.48C120.92,43.88,120.7,43.67,120.7,43.42z"/>
	</g>
	<g>
		<path class="st0" d="M2.25,69.02c0-0.09,0.02-0.18,0.05-0.25l4.55-15.15c0.07-0.23,0.24-0.35,0.45-0.35h1.2
			c0.22,0,0.38,0.12,0.45,0.35l4.55,15.15c0.02,0.07,0.05,0.16,0.05,0.25c0,0.18-0.17,0.34-0.5,0.34h-0.6
			c-0.22,0-0.38-0.11-0.45-0.34l-1.17-3.89c-0.07-0.23-0.24-0.32-0.45-0.32H5.44c-0.22,0-0.38,0.09-0.45,0.32l-1.17,3.89
			c-0.07,0.23-0.24,0.34-0.45,0.34h-0.6C2.42,69.37,2.25,69.21,2.25,69.02z M10.01,63.39c0.14,0,0.24-0.07,0.19-0.25l-2.18-7.82
			c-0.02-0.09-0.05-0.14-0.1-0.14H7.88c-0.05,0-0.07,0.05-0.1,0.14L5.6,63.14c-0.05,0.18,0.05,0.25,0.19,0.25H10.01z"/>
		<path class="st0" d="M15.91,73.51V58.33c0-0.25,0.22-0.46,0.48-0.46h0.38c0.17,0,0.26,0.05,0.36,0.21
			c0.17,0.3,0.36,0.44,0.57,0.44c0.57,0,0.84-0.87,2.75-0.87c1.7,0,3.06,0.69,3.76,1.89c0.6,1.08,0.81,2.18,0.81,4.09
			c0,1.98-0.22,3.06-0.81,4.09c-0.69,1.2-2.06,1.89-3.76,1.89c-1.87,0-2.15-0.69-2.66-0.69c-0.34,0-0.48,0.21-0.48,0.69v3.91
			c0,0.25-0.22,0.46-0.48,0.46h-0.45C16.13,73.97,15.91,73.76,15.91,73.51z M23.18,66.47c0.26-0.71,0.36-1.43,0.36-2.85
			c0-1.45-0.1-2.21-0.36-2.85C22.66,59.53,21.85,59,20.46,59c-1.36,0-2.18,0.53-2.73,1.77c-0.26,0.64-0.36,1.4-0.36,2.85
			c0,1.43,0.1,2.14,0.36,2.85c0.5,1.24,1.34,1.77,2.73,1.77C21.85,68.24,22.68,67.71,23.18,66.47z"/>
		<path class="st0" d="M28.16,73.51V58.33c0-0.25,0.22-0.46,0.48-0.46h0.38c0.17,0,0.26,0.05,0.36,0.21
			c0.17,0.3,0.36,0.44,0.57,0.44c0.57,0,0.84-0.87,2.75-0.87c1.7,0,3.06,0.69,3.76,1.89c0.6,1.08,0.81,2.18,0.81,4.09
			c0,1.98-0.22,3.06-0.81,4.09c-0.69,1.2-2.06,1.89-3.76,1.89c-1.87,0-2.15-0.69-2.66-0.69c-0.33,0-0.48,0.21-0.48,0.69v3.91
			c0,0.25-0.22,0.46-0.48,0.46h-0.45C28.37,73.97,28.16,73.76,28.16,73.51z M35.43,66.47c0.26-0.71,0.36-1.43,0.36-2.85
			c0-1.45-0.1-2.21-0.36-2.85C34.91,59.53,34.09,59,32.7,59c-1.36,0-2.18,0.53-2.73,1.77c-0.26,0.64-0.36,1.4-0.36,2.85
			c0,1.43,0.1,2.14,0.36,2.85c0.5,1.24,1.34,1.77,2.73,1.77C34.09,68.24,34.93,67.71,35.43,66.47z"/>
		<path class="st0" d="M40.41,68.91V53.5c0-0.25,0.22-0.46,0.48-0.46h0.48c0.26,0,0.48,0.21,0.48,0.46v15.41
			c0,0.25-0.22,0.46-0.48,0.46h-0.48C40.62,69.37,40.41,69.16,40.41,68.91z"/>
		<path class="st0" d="M45.05,54.77v-1.36c0-0.18,0.17-0.37,0.38-0.37h1.39c0.22,0,0.38,0.18,0.38,0.37v1.36
			c0,0.21-0.17,0.37-0.38,0.37h-1.39C45.21,55.14,45.05,54.97,45.05,54.77z M46.36,69.37h-0.48c-0.33,0-0.48-0.21-0.48-0.46V58.33
			c0-0.25,0.14-0.46,0.48-0.46h0.48c0.34,0,0.48,0.21,0.48,0.46v10.58C46.84,69.16,46.7,69.37,46.36,69.37z"/>
		<path class="st0" d="M50.98,67.88c-0.77-1.13-1.03-2.21-1.03-4.25c0-1.86,0.29-2.94,1.1-4.16c0.79-1.17,2.13-1.82,3.8-1.82
			c2.99,0,4.83,1.93,4.83,5.04v1.03c0,0.25-0.22,0.46-0.48,0.46H51.7c-0.14,0-0.24,0.09-0.24,0.23c0,2.46,1.24,3.84,3.45,3.84
			c1.53,0,2.75-0.57,3.21-2.16c0.07-0.25,0.29-0.39,0.55-0.39h0.48c0.29,0,0.45,0.18,0.41,0.46c-0.29,2.05-2.18,3.45-4.64,3.45
			C53.11,69.6,51.74,69,50.98,67.88z M57.94,62.89c0.14,0,0.24-0.09,0.24-0.23c0-2.35-1.2-3.66-3.3-3.66c-2.08,0-3.4,1.4-3.4,3.66
			c0,0.14,0.1,0.23,0.24,0.23H57.94z"/>
		<path class="st0" d="M63.18,67.71c-0.6-1.03-0.81-2.12-0.81-4.09c0-1.98,0.22-3.06,0.81-4.09c0.69-1.2,2.06-1.89,3.76-1.89
			c1.87,0,2.15,0.69,2.66,0.69c0.33,0,0.48-0.21,0.48-0.69V53.5c0-0.25,0.22-0.46,0.48-0.46H71c0.26,0,0.48,0.21,0.48,0.46v15.41
			c0,0.25-0.22,0.46-0.48,0.46h-0.38c-0.17,0-0.26-0.05-0.36-0.21c-0.17-0.3-0.36-0.44-0.57-0.44c-0.57,0-0.84,0.87-2.75,0.87
			C65.23,69.6,63.87,68.91,63.18,67.71z M69.66,66.47c0.26-0.64,0.36-1.33,0.36-2.85c0-1.43-0.1-2.14-0.36-2.85
			c-0.5-1.24-1.34-1.77-2.73-1.77s-2.23,0.53-2.73,1.77c-0.26,0.71-0.36,1.43-0.36,2.85c0,1.45,0.1,2.21,0.36,2.85
			c0.53,1.24,1.34,1.77,2.73,1.77C68.3,68.24,69.11,67.71,69.66,66.47z"/>
		<path class="st0" d="M79.47,64.77V64.4c0-0.25,0.22-0.46,0.48-0.46h0.62c0.26,0,0.48,0.21,0.48,0.46v0.37
			c0,2.12,1.48,3.36,3.57,3.36c2.06,0,3.52-1.06,3.52-3.13c0-2.12-1.58-2.81-3.92-3.45c-2.08-0.57-4.28-1.7-4.28-4.46
			c0-2.78,2.42-4.05,4.81-4.05c2.68,0,4.67,1.59,4.67,4.37v0.3c0,0.25-0.22,0.46-0.48,0.46h-0.6c-0.26,0-0.48-0.21-0.48-0.46v-0.3
			c0-1.93-1.34-2.9-3.11-2.9c-1.89,0-3.18,0.83-3.18,2.58c0,1.93,1.89,2.67,4.07,3.27c2.22,0.62,4.14,1.82,4.14,4.65
			c0,2.97-2.49,4.6-5.14,4.6C81.67,69.6,79.47,67.94,79.47,64.77z"/>
		<path class="st0" d="M93,67.53c-0.77-1.13-0.84-2.25-0.84-3.91c0-1.66,0.07-2.78,0.84-3.91c0.84-1.24,2.23-2.07,4.04-2.07
			c1.32,0,2.46,0.35,3.25,1.03c0.81,0.74,1.24,1.82,1.24,2.87c0,0.25-0.14,0.46-0.41,0.46h-0.6c-0.22,0-0.45-0.11-0.45-0.37
			c0-0.74-0.29-1.52-0.89-2.02C98.67,59.21,97.93,59,97.05,59c-1.32,0-2.39,0.62-2.94,1.77c-0.36,0.74-0.43,1.52-0.43,2.85
			c0,1.33,0.07,2.12,0.43,2.85c0.55,1.15,1.63,1.77,2.94,1.77c1.08,0,1.87-0.32,2.34-0.85c0.45-0.51,0.67-1.2,0.67-1.77
			c0-0.3,0.24-0.39,0.45-0.39h0.55c0.26,0,0.48,0.21,0.48,0.46c0,0.94-0.38,1.91-1.03,2.6c-0.79,0.83-2.01,1.31-3.47,1.31
			C95.23,69.6,93.84,68.77,93,67.53z"/>
		<path class="st0" d="M104.13,54.77v-1.36c0-0.18,0.17-0.37,0.38-0.37h1.39c0.22,0,0.38,0.18,0.38,0.37v1.36
			c0,0.21-0.17,0.37-0.38,0.37h-1.39C104.29,55.14,104.13,54.97,104.13,54.77z M105.44,69.37h-0.48c-0.33,0-0.48-0.21-0.48-0.46
			V58.33c0-0.25,0.14-0.46,0.48-0.46h0.48c0.33,0,0.48,0.21,0.48,0.46v10.58C105.92,69.16,105.78,69.37,105.44,69.37z"/>
		<path class="st0" d="M110.08,67.88c-0.77-1.13-1.03-2.21-1.03-4.25c0-1.86,0.29-2.94,1.1-4.16c0.79-1.17,2.13-1.82,3.8-1.82
			c2.99,0,4.83,1.93,4.83,5.04v1.03c0,0.25-0.22,0.46-0.48,0.46h-7.51c-0.14,0-0.24,0.09-0.24,0.23c0,2.46,1.24,3.84,3.45,3.84
			c1.53,0,2.75-0.57,3.21-2.16c0.07-0.25,0.29-0.39,0.55-0.39h0.48c0.29,0,0.46,0.18,0.41,0.46c-0.29,2.05-2.18,3.45-4.64,3.45
			C112.21,69.6,110.85,69,110.08,67.88z M117.05,62.89c0.14,0,0.24-0.09,0.24-0.23c0-2.35-1.2-3.66-3.3-3.66
			c-2.08,0-3.4,1.4-3.4,3.66c0,0.14,0.1,0.23,0.24,0.23H117.05z"/>
		<path class="st0" d="M121.9,68.91V58.33c0-0.25,0.22-0.46,0.48-0.46h0.38c0.14,0,0.24,0.07,0.33,0.16
			c0.12,0.21,0.24,0.46,0.48,0.46c0.65,0,0.86-0.85,3.18-0.85c2.27,0,4.04,1.29,4.04,3.82v7.45c0,0.25-0.22,0.46-0.48,0.46h-0.45
			c-0.26,0-0.48-0.21-0.48-0.46v-7.24c0-1.84-1.32-2.67-3.04-2.67c-1.72,0-3.04,0.83-3.04,2.67v7.24c0,0.25-0.21,0.46-0.48,0.46
			h-0.45C122.11,69.37,121.9,69.16,121.9,68.91z"/>
		<path class="st0" d="M134.65,67.53c-0.77-1.13-0.84-2.25-0.84-3.91c0-1.66,0.07-2.78,0.84-3.91c0.84-1.24,2.23-2.07,4.04-2.07
			c1.32,0,2.46,0.35,3.25,1.03c0.81,0.74,1.24,1.82,1.24,2.87c0,0.25-0.14,0.46-0.41,0.46h-0.6c-0.21,0-0.46-0.11-0.46-0.37
			c0-0.74-0.29-1.52-0.88-2.02c-0.53-0.41-1.27-0.62-2.15-0.62c-1.32,0-2.39,0.62-2.94,1.77c-0.36,0.74-0.43,1.52-0.43,2.85
			c0,1.33,0.07,2.12,0.43,2.85c0.55,1.15,1.63,1.77,2.94,1.77c1.08,0,1.87-0.32,2.34-0.85c0.46-0.51,0.67-1.2,0.67-1.77
			c0-0.3,0.24-0.39,0.46-0.39h0.55c0.26,0,0.48,0.21,0.48,0.46c0,0.94-0.38,1.91-1.03,2.6c-0.79,0.83-2.01,1.31-3.47,1.31
			C136.87,69.6,135.49,68.77,134.65,67.53z"/>
		<path class="st0" d="M146.27,67.88c-0.77-1.13-1.03-2.21-1.03-4.25c0-1.86,0.29-2.94,1.1-4.16c0.79-1.17,2.13-1.82,3.8-1.82
			c2.99,0,4.83,1.93,4.83,5.04v1.03c0,0.25-0.21,0.46-0.48,0.46h-7.51c-0.14,0-0.24,0.09-0.24,0.23c0,2.46,1.24,3.84,3.45,3.84
			c1.53,0,2.75-0.57,3.21-2.16c0.07-0.25,0.29-0.39,0.55-0.39h0.48c0.29,0,0.45,0.18,0.41,0.46c-0.29,2.05-2.18,3.45-4.64,3.45
			C148.4,69.6,147.04,69,146.27,67.88z M153.24,62.89c0.14,0,0.24-0.09,0.24-0.23c0-2.35-1.2-3.66-3.3-3.66
			c-2.08,0-3.4,1.4-3.4,3.66c0,0.14,0.1,0.23,0.24,0.23H153.24z"/>
		<path class="st0" d="M157.28,65.62c0-0.25,0.21-0.46,0.48-0.46h0.48c0.26,0,0.48,0.21,0.48,0.46c0,1.68,1.2,2.69,3.21,2.69
			c1.99,0,3.13-0.74,3.13-2.02c0-1.29-0.77-1.79-3.47-2.32c-2.66-0.51-3.78-1.47-3.78-3.24c0-1.79,1.77-3.08,4.19-3.08
			c2.61,0,4.23,1.31,4.23,3.45c0,0.25-0.21,0.46-0.48,0.46h-0.48c-0.26,0-0.48-0.21-0.48-0.46c0-1.47-0.91-2.18-2.8-2.18
			c-1.67,0-2.68,0.69-2.68,1.82c0,1.06,0.69,1.49,3.35,2.09c2.94,0.67,3.83,1.47,3.83,3.47c0,2.02-1.79,3.31-4.57,3.31
			C159.05,69.6,157.28,68.08,157.28,65.62z"/>
	</g>
	<g>
		<path class="st0" d="M3.69,110.89V95.71c0-0.25,0.22-0.46,0.48-0.46h7.49c0.26,0,0.48,0.21,0.48,0.46v0.55
			c0,0.25-0.22,0.46-0.48,0.46h-6.2c-0.14,0-0.24,0.09-0.24,0.23v5.2c0,0.14,0.1,0.23,0.24,0.23h5.93c0.26,0,0.48,0.21,0.48,0.46
			v0.55c0,0.25-0.22,0.46-0.48,0.46H5.46c-0.14,0-0.24,0.09-0.24,0.23v6.81c0,0.25-0.22,0.46-0.48,0.46H4.17
			C3.9,111.35,3.69,111.14,3.69,110.89z"/>
		<path class="st0" d="M13.64,107.9c0-1.91,1.44-3.36,3.95-3.36h3.42c0.14,0,0.24-0.09,0.24-0.23v-0.9c0-1.49-0.98-2.53-2.78-2.53
			c-1.56,0-2.92,0.81-2.92,2.02c0,0.34-0.26,0.39-0.5,0.39h-0.38c-0.36,0-0.48-0.18-0.48-0.46c0-2.14,2.13-3.22,4.28-3.22
			c2.46,0,4.19,1.2,4.19,3.82v7.45c0,0.25-0.22,0.46-0.48,0.46h-0.22c-0.14,0-0.26-0.05-0.33-0.16c-0.12-0.18-0.17-0.48-0.48-0.48
			c-0.43,0-1.39,0.87-3.16,0.87C15.05,111.58,13.64,109.85,13.64,107.9z M21.32,107.41v-1.38c0-0.14-0.1-0.23-0.24-0.23h-3.49
			c-1.41,0-2.46,0.71-2.46,2.07c0,1.63,1.29,2.41,2.75,2.41C20.08,110.29,21.32,109.28,21.32,107.41z"/>
		<path class="st0" d="M26.1,110.89V95.48c0-0.25,0.22-0.46,0.48-0.46h0.45c0.26,0,0.48,0.21,0.48,0.46v8.92
			c0,0.07,0.05,0.09,0.07,0.09c0.05,0,0.12-0.05,0.17-0.09l4.83-4.25c0.12-0.11,0.33-0.3,0.67-0.3h0.45c0.33,0,0.48,0.21,0.48,0.41
			c0,0.11-0.05,0.25-0.14,0.34l-5.14,4.48c-0.1,0.09-0.14,0.18-0.14,0.28c0,0.09,0.05,0.18,0.14,0.28l5.26,4.9
			c0.12,0.11,0.17,0.23,0.17,0.37c0,0.23-0.17,0.44-0.5,0.44h-0.48c-0.36,0-0.6-0.23-0.72-0.34l-4.83-4.6
			c-0.1-0.09-0.17-0.14-0.22-0.14c-0.05,0-0.07,0.02-0.07,0.09v4.53c0,0.25-0.22,0.46-0.48,0.46h-0.45
			C26.32,111.35,26.1,111.14,26.1,110.89z"/>
		<path class="st0" d="M45.29,100.31v10.58c0,0.25-0.22,0.46-0.48,0.46h-0.38c-0.14,0-0.24-0.07-0.34-0.16
			c-0.12-0.21-0.24-0.46-0.48-0.46c-0.65,0-0.86,0.85-3.18,0.85c-2.27,0-4.04-1.29-4.04-3.82v-7.45c0-0.25,0.22-0.46,0.48-0.46h0.45
			c0.26,0,0.48,0.21,0.48,0.46v7.24c0,1.84,1.32,2.67,3.04,2.67c1.72,0,3.04-0.83,3.04-2.67v-7.24c0-0.25,0.22-0.46,0.48-0.46h0.45
			C45.07,99.85,45.29,100.06,45.29,100.31z"/>
		<path class="st0" d="M48.85,110.89V95.48c0-0.25,0.22-0.46,0.48-0.46h0.48c0.26,0,0.48,0.21,0.48,0.46v15.41
			c0,0.25-0.22,0.46-0.48,0.46h-0.48C49.06,111.35,48.85,111.14,48.85,110.89z"/>
		<path class="st0" d="M55.21,107.67v-6.12c0-0.14-0.1-0.23-0.24-0.23h-1.94c-0.26,0-0.48-0.21-0.48-0.46v-0.44
			c0-0.25,0.22-0.46,0.48-0.46h1.94c0.14,0,0.24-0.09,0.24-0.23v-3.56c0-0.25,0.22-0.46,0.48-0.46h0.48c0.26,0,0.48,0.21,0.48,0.46
			v3.56c0,0.14,0.1,0.23,0.24,0.23h3.01c0.26,0,0.48,0.21,0.48,0.46v0.44c0,0.25-0.22,0.46-0.48,0.46h-3.01
			c-0.14,0-0.24,0.09-0.24,0.23v6.12c0,1.56,0.57,2.32,2.27,2.32h1.22c0.26,0,0.48,0.21,0.48,0.46v0.44c0,0.25-0.22,0.46-0.48,0.46
			h-1.22C56.43,111.35,55.21,110.31,55.21,107.67z"/>
		<path class="st0" d="M62.08,107.9c0-1.91,1.44-3.36,3.95-3.36h3.42c0.14,0,0.24-0.09,0.24-0.23v-0.9c0-1.49-0.98-2.53-2.78-2.53
			c-1.56,0-2.92,0.81-2.92,2.02c0,0.34-0.26,0.39-0.5,0.39h-0.38c-0.36,0-0.48-0.18-0.48-0.46c0-2.14,2.13-3.22,4.28-3.22
			c2.46,0,4.19,1.2,4.19,3.82v7.45c0,0.25-0.22,0.46-0.48,0.46H70.4c-0.14,0-0.26-0.05-0.33-0.16c-0.12-0.18-0.17-0.48-0.48-0.48
			c-0.43,0-1.39,0.87-3.16,0.87C63.49,111.58,62.08,109.85,62.08,107.9z M69.76,107.41v-1.38c0-0.14-0.1-0.23-0.24-0.23h-3.49
			c-1.41,0-2.46,0.71-2.46,2.07c0,1.63,1.29,2.41,2.75,2.41C68.51,110.29,69.76,109.28,69.76,107.41z M63.97,96.61v-1.22
			c0-0.18,0.17-0.37,0.38-0.37h1.24c0.22,0,0.38,0.18,0.38,0.37v1.22c0,0.21-0.17,0.37-0.38,0.37h-1.24
			C64.13,96.97,63.97,96.81,63.97,96.61z M68.06,96.61v-1.22c0-0.18,0.17-0.37,0.38-0.37h1.24c0.22,0,0.38,0.18,0.38,0.37v1.22
			c0,0.21-0.17,0.37-0.38,0.37h-1.24C68.23,96.97,68.06,96.81,68.06,96.61z"/>
		<path class="st0" d="M75.42,107.67v-6.12c0-0.14-0.1-0.23-0.24-0.23h-1.94c-0.26,0-0.48-0.21-0.48-0.46v-0.44
			c0-0.25,0.22-0.46,0.48-0.46h1.94c0.14,0,0.24-0.09,0.24-0.23v-3.56c0-0.25,0.22-0.46,0.48-0.46h0.48c0.26,0,0.48,0.21,0.48,0.46
			v3.56c0,0.14,0.1,0.23,0.24,0.23h3.01c0.26,0,0.48,0.21,0.48,0.46v0.44c0,0.25-0.22,0.46-0.48,0.46H77.1
			c-0.14,0-0.24,0.09-0.24,0.23v6.12c0,1.56,0.57,2.32,2.27,2.32h1.22c0.26,0,0.48,0.21,0.48,0.46v0.44c0,0.25-0.22,0.46-0.48,0.46
			h-1.22C76.64,111.35,75.42,110.31,75.42,107.67z"/>
		<path class="st0" d="M88.96,110.89v-9.34c0-0.14-0.1-0.23-0.24-0.23h-2.08c-0.26,0-0.48-0.21-0.48-0.46v-0.44
			c0-0.25,0.22-0.46,0.48-0.46h2.08c0.14,0,0.24-0.09,0.24-0.23v-0.41c0-2.64,1.58-4.3,4.07-4.3h0.12c0.26,0,0.48,0.21,0.48,0.46
			v0.37c0,0.25-0.22,0.46-0.48,0.46h-0.12c-1.65,0-2.63,1.13-2.63,3.01v0.41c0,0.14,0.1,0.23,0.24,0.23h2.73
			c0.26,0,0.48,0.21,0.48,0.46v0.44c0,0.25-0.22,0.46-0.48,0.46h-2.73c-0.14,0-0.24,0.09-0.24,0.23v9.34c0,0.25-0.22,0.46-0.48,0.46
			h-0.48C89.18,111.35,88.96,111.14,88.96,110.89z"/>
		<path class="st0" d="M104.87,100.31v10.58c0,0.25-0.22,0.46-0.48,0.46h-0.38c-0.14,0-0.24-0.07-0.33-0.16
			c-0.12-0.21-0.24-0.46-0.48-0.46c-0.65,0-0.86,0.85-3.18,0.85c-2.27,0-4.04-1.29-4.04-3.82v-7.45c0-0.25,0.22-0.46,0.48-0.46h0.45
			c0.26,0,0.48,0.21,0.48,0.46v7.24c0,1.84,1.32,2.67,3.04,2.67c1.72,0,3.04-0.83,3.04-2.67v-7.24c0-0.25,0.22-0.46,0.48-0.46h0.45
			C104.66,99.85,104.87,100.06,104.87,100.31z M97.31,96.61v-1.22c0-0.18,0.17-0.37,0.38-0.37h1.24c0.22,0,0.38,0.18,0.38,0.37v1.22
			c0,0.21-0.17,0.37-0.38,0.37h-1.24C97.48,96.97,97.31,96.81,97.31,96.61z M101.4,96.61v-1.22c0-0.18,0.17-0.37,0.38-0.37h1.24
			c0.22,0,0.38,0.18,0.38,0.37v1.22c0,0.21-0.17,0.37-0.38,0.37h-1.24C101.57,96.97,101.4,96.81,101.4,96.61z"/>
		<path class="st0" d="M108.43,110.89v-10.58c0-0.25,0.22-0.46,0.48-0.46h0.31c0.26,0,0.41,0.14,0.48,0.46
			c0.07,0.3,0.07,0.8,0.43,0.8c0.62,0,1.05-1.26,3.23-1.26h0.29c0.26,0,0.48,0.21,0.48,0.46v0.48c0,0.25-0.22,0.46-0.48,0.46h-0.31
			c-1.53,0-3.49,0.83-3.49,3.89v5.75c0,0.25-0.22,0.46-0.48,0.46h-0.45C108.65,111.35,108.43,111.14,108.43,110.89z"/>
	</g>
	<g>
		<path class="st0" d="M3.4,136.39v-15.18c0-0.25,0.22-0.46,0.48-0.46h2.39c0.26,0,0.48,0.21,0.48,0.46v15.18
			c0,0.25-0.22,0.46-0.48,0.46H3.88C3.62,136.85,3.4,136.64,3.4,136.39z"/>
		<path class="st0" d="M10.1,136.39v-10.58c0-0.25,0.22-0.46,0.48-0.46h1.2c0.19,0,0.31,0.05,0.43,0.16c0.19,0.25,0.31,0.6,0.65,0.6
			c0.57,0,0.96-1.01,2.87-1.01c2.58,0,4.19,1.61,4.19,4.25v7.04c0,0.25-0.22,0.46-0.48,0.46h-2.15c-0.26,0-0.48-0.21-0.48-0.46
			v-6.81c0-1.01-0.67-1.59-1.79-1.59s-1.79,0.57-1.79,1.49v6.9c0,0.25-0.22,0.46-0.48,0.46h-2.15
			C10.31,136.85,10.1,136.64,10.1,136.39z"/>
		<path class="st0" d="M23.97,136.39v-7.98c0-0.14-0.1-0.23-0.24-0.23h-1.91c-0.26,0-0.48-0.21-0.48-0.46v-1.84
			c0-0.25,0.22-0.46,0.48-0.46h1.91c0.14,0,0.24-0.09,0.24-0.23v-0.48c0-2.39,2.06-4.21,4.55-4.21h1.44c0.26,0,0.48,0.21,0.48,0.46
			v2.07c0,0.25-0.22,0.46-0.48,0.46h-1.44c-0.79,0-1.44,0.51-1.44,1.26v0.44c0,0.14,0.1,0.23,0.24,0.23h2.87
			c0.26,0,0.48,0.21,0.48,0.46v1.84c0,0.25-0.22,0.46-0.48,0.46h-2.87c-0.14,0-0.24,0.09-0.24,0.23v7.98c0,0.25-0.22,0.46-0.48,0.46
			h-2.15C24.19,136.85,23.97,136.64,23.97,136.39z"/>
		<path class="st0" d="M32.78,135.29c-0.77-1.01-1.05-2.16-1.05-4.19c0-2.02,0.29-3.17,1.05-4.19c0.84-1.13,2.32-1.82,4-1.82
			c1.67,0,3.16,0.69,4,1.82c0.77,1.01,1.05,2.16,1.05,4.19c0,2.02-0.29,3.17-1.05,4.19c-0.84,1.13-2.32,1.82-4,1.82
			C35.1,137.1,33.61,136.41,32.78,135.29z M38.28,133.56c0.29-0.39,0.38-0.99,0.38-2.46c0-1.47-0.1-2.07-0.38-2.46
			c-0.31-0.39-0.74-0.55-1.51-0.55c-0.74,0-1.2,0.16-1.51,0.55c-0.29,0.39-0.38,0.99-0.38,2.46c0,1.47,0.1,2.07,0.38,2.46
			c0.31,0.39,0.77,0.55,1.51,0.55C37.54,134.11,37.97,133.95,38.28,133.56z"/>
		<path class="st0" d="M44.5,136.39v-10.58c0-0.25,0.22-0.46,0.48-0.46h1.2c0.19,0,0.43,0.12,0.5,0.3c0.14,0.39,0.24,0.97,0.65,0.97
			c0.74,0,1.05-1.26,3.42-1.26h0.81c0.26,0,0.48,0.21,0.48,0.46V128c0,0.25-0.22,0.46-0.48,0.46h-0.84c-1.79,0-3.11,0.8-3.11,2.55
			v5.38c0,0.25-0.22,0.46-0.48,0.46h-2.15C44.71,136.85,44.5,136.64,44.5,136.39z"/>
		<path class="st0" d="M53.94,136.39v-10.58c0-0.25,0.22-0.46,0.48-0.46h1.2c0.22,0,0.33,0.07,0.43,0.16
			c0.19,0.16,0.31,0.39,0.65,0.39c0.65,0,1.12-0.8,2.7-0.8c1.08,0,1.99,0.3,2.66,0.85c0.31,0.23,0.77,0.23,1.08,0
			c0.43-0.3,1.05-0.85,2.63-0.85c2.49,0,4.02,1.61,4.02,4.25v7.04c0,0.25-0.22,0.46-0.48,0.46h-2.15c-0.26,0-0.48-0.21-0.48-0.46
			v-6.81c0-0.99-0.6-1.59-1.63-1.59c-1.03,0-1.63,0.57-1.63,1.49v6.9c0,0.25-0.22,0.46-0.48,0.46h-2.15c-0.26,0-0.48-0.21-0.48-0.46
			v-6.81c0-0.99-0.6-1.59-1.63-1.59s-1.63,0.57-1.63,1.49v6.9c0,0.25-0.22,0.46-0.48,0.46h-2.15
			C54.16,136.85,53.94,136.64,53.94,136.39z"/>
		<path class="st0" d="M72.15,133.31c0-1.79,1.36-3.59,4.12-3.59h2.44c0.14,0,0.24-0.09,0.24-0.23v-0.37c0-0.94-0.79-1.4-1.84-1.4
			c-0.5,0-1.48,0.11-1.65,0.76c-0.1,0.39-0.22,0.44-0.65,0.44h-1.72c-0.26,0-0.48-0.21-0.48-0.46c0-1.75,1.75-3.36,4.62-3.36
			c2.9,0,4.79,1.49,4.79,4.16v7.13c0,0.25-0.22,0.46-0.48,0.46h-1.2c-0.14,0-0.29-0.05-0.34-0.16c-0.1-0.18-0.26-0.46-0.55-0.46
			c-0.43,0-1.08,0.87-3.11,0.87C73.87,137.1,72.15,135.72,72.15,133.31z M79.06,132.94v-0.55c0-0.14-0.1-0.23-0.24-0.23H76.6
			c-1.03,0-1.41,0.53-1.41,1.15c0,0.85,0.72,1.22,1.58,1.22C78.01,134.53,79.06,134.14,79.06,132.94z"/>
		<path class="st0" d="M85.9,132.64v-4.23c0-0.14-0.1-0.23-0.24-0.23H83.8c-0.26,0-0.48-0.21-0.48-0.46v-1.84
			c0-0.25,0.22-0.46,0.48-0.46h1.87c0.14,0,0.24-0.09,0.24-0.23v-3.52c0-0.25,0.22-0.46,0.48-0.46h2.15c0.26,0,0.48,0.21,0.48,0.46
			v3.52c0,0.14,0.1,0.23,0.24,0.23h2.63c0.26,0,0.48,0.21,0.48,0.46v1.84c0,0.25-0.22,0.46-0.48,0.46h-2.63
			c-0.14,0-0.24,0.09-0.24,0.23v4.18c0,0.87,0.53,1.38,1.44,1.38h1.67c0.26,0,0.48,0.21,0.48,0.46v1.95c0,0.25-0.22,0.46-0.48,0.46
			h-1.91C87.24,136.85,85.9,135.54,85.9,132.64z"/>
		<path class="st0" d="M94.51,123.35v-2.48c0-0.18,0.17-0.37,0.38-0.37h2.58c0.22,0,0.38,0.18,0.38,0.37v2.48
			c0,0.21-0.17,0.37-0.38,0.37H94.9C94.68,123.72,94.51,123.56,94.51,123.35z M97.36,136.85h-2.34c-0.22,0-0.38-0.18-0.38-0.37
			v-10.76c0-0.18,0.17-0.37,0.38-0.37h2.34c0.22,0,0.38,0.18,0.38,0.37v10.76C97.74,136.67,97.58,136.85,97.36,136.85z"/>
		<path class="st0" d="M100.85,136.39v-15.43c0-0.25,0.22-0.46,0.48-0.46h2.15c0.26,0,0.48,0.21,0.48,0.46v8.28
			c0,0.14,0.17,0.16,0.24,0.07l3.01-3.66c0.12-0.14,0.24-0.3,0.6-0.3h2.37c0.33,0,0.5,0.23,0.5,0.46c0,0.11-0.05,0.21-0.12,0.3
			l-3.8,4.37c-0.22,0.25-0.22,0.39,0.02,0.69l3.9,4.92c0.07,0.09,0.12,0.21,0.12,0.32c0,0.23-0.19,0.44-0.5,0.44h-2.49
			c-0.33,0-0.57-0.28-0.67-0.41l-2.94-3.91c-0.07-0.09-0.24-0.07-0.24,0.07v3.79c0,0.25-0.22,0.46-0.48,0.46h-2.15
			C101.07,136.85,100.85,136.64,100.85,136.39z"/>
		<path class="st0" d="M126.81,125.81v10.58c0,0.25-0.21,0.46-0.48,0.46h-1.2c-0.19,0-0.31-0.05-0.43-0.16
			c-0.19-0.25-0.31-0.6-0.65-0.6c-0.57,0-0.96,1.01-2.87,1.01c-2.58,0-4.19-1.61-4.19-4.25v-7.04c0-0.25,0.21-0.46,0.48-0.46h2.15
			c0.26,0,0.48,0.21,0.48,0.46v6.81c0,1.01,0.67,1.59,1.79,1.59s1.79-0.57,1.79-1.49v-6.9c0-0.25,0.21-0.46,0.48-0.46h2.15
			C126.59,125.35,126.81,125.56,126.81,125.81z"/>
		<path class="st0" d="M129.91,136.39v-10.58c0-0.25,0.21-0.46,0.48-0.46h1.2c0.19,0,0.31,0.05,0.43,0.16
			c0.19,0.25,0.31,0.6,0.65,0.6c0.57,0,0.96-1.01,2.87-1.01c2.58,0,4.19,1.61,4.19,4.25v7.04c0,0.25-0.22,0.46-0.48,0.46h-2.15
			c-0.26,0-0.48-0.21-0.48-0.46v-6.81c0-1.01-0.67-1.59-1.79-1.59c-1.12,0-1.79,0.57-1.79,1.49v6.9c0,0.25-0.22,0.46-0.48,0.46
			h-2.15C130.13,136.85,129.91,136.64,129.91,136.39z"/>
		<path class="st0" d="M143.24,135.29c-0.74-1.01-0.96-1.95-0.96-4.19c0-2.23,0.21-3.17,0.96-4.19c0.88-1.17,2.11-1.82,3.59-1.82
			c1.15,0,1.48,0.44,1.82,0.44c0.22,0,0.38-0.12,0.38-0.53v-4.05c0-0.25,0.22-0.46,0.48-0.46h2.15c0.26,0,0.48,0.21,0.48,0.46v15.43
			c0,0.25-0.21,0.46-0.48,0.46h-1.2c-0.12,0-0.22-0.05-0.33-0.16c-0.19-0.3-0.33-0.46-0.53-0.46c-0.55,0-0.81,0.87-2.73,0.87
			C145.39,137.1,144.12,136.46,143.24,135.29z M148.81,133.54c0.26-0.48,0.29-1.03,0.29-2.44c0-1.4-0.02-1.95-0.29-2.44
			c-0.26-0.48-0.79-0.67-1.53-0.67c-0.74,0-1.27,0.18-1.53,0.67c-0.26,0.48-0.29,1.03-0.29,2.44c0,1.4,0.02,1.95,0.29,2.44
			c0.26,0.48,0.79,0.67,1.53,0.67C148.02,134.21,148.55,134.02,148.81,133.54z"/>
	</g>
	<g>
		<path class="st0" d="M5.29,162.01l-3.13-14.95c-0.05-0.21-0.07-0.35-0.07-0.46c0-0.21,0.14-0.35,0.45-0.35h2.3
			c0.22,0,0.41,0.12,0.45,0.35l2.08,10.6c0.02,0.11,0.07,0.16,0.17,0.16h0.14c0.1,0,0.14-0.02,0.17-0.16l1.72-10.6
			c0.05-0.25,0.24-0.35,0.45-0.35h1.91c0.22,0,0.41,0.09,0.45,0.35l1.75,10.6c0.02,0.14,0.07,0.16,0.17,0.16h0.14
			c0.1,0,0.14-0.05,0.17-0.16l2.08-10.6c0.05-0.23,0.24-0.35,0.45-0.35h2.3c0.31,0,0.45,0.14,0.45,0.35c0,0.11-0.02,0.25-0.07,0.46
			l-3.16,14.95c-0.05,0.23-0.24,0.34-0.45,0.34H12.9c-0.22,0-0.41-0.11-0.45-0.34l-1.32-7.93c-0.02-0.11-0.07-0.16-0.14-0.16
			c-0.07,0-0.12,0.05-0.14,0.16l-1.32,7.93c-0.05,0.23-0.24,0.34-0.45,0.34H5.75C5.53,162.36,5.34,162.24,5.29,162.01z"/>
		<path class="st0" d="M21.82,148.86v-2.48c0-0.18,0.17-0.37,0.38-0.37h2.58c0.22,0,0.38,0.18,0.38,0.37v2.48
			c0,0.21-0.17,0.37-0.38,0.37H22.2C21.99,149.23,21.82,149.07,21.82,148.86z M24.67,162.36h-2.34c-0.22,0-0.38-0.18-0.38-0.37
			v-10.76c0-0.18,0.17-0.37,0.38-0.37h2.34c0.22,0,0.38,0.18,0.38,0.37v10.76C25.05,162.17,24.88,162.36,24.67,162.36z"/>
		<path class="st0" d="M28.16,161.9v-10.58c0-0.25,0.22-0.46,0.48-0.46h1.2c0.19,0,0.43,0.12,0.5,0.3c0.14,0.39,0.24,0.97,0.65,0.97
			c0.74,0,1.05-1.26,3.42-1.26h0.81c0.26,0,0.48,0.21,0.48,0.46v2.18c0,0.25-0.22,0.46-0.48,0.46h-0.84c-1.79,0-3.11,0.8-3.11,2.55
			v5.38c0,0.25-0.22,0.46-0.48,0.46h-2.15C28.37,162.36,28.16,162.15,28.16,161.9z"/>
		<path class="st0" d="M39.23,158.15v-4.23c0-0.14-0.1-0.23-0.24-0.23h-1.87c-0.26,0-0.48-0.21-0.48-0.46v-1.84
			c0-0.25,0.22-0.46,0.48-0.46h1.87c0.14,0,0.24-0.09,0.24-0.23v-3.52c0-0.25,0.22-0.46,0.48-0.46h2.15c0.26,0,0.48,0.21,0.48,0.46
			v3.52c0,0.14,0.1,0.23,0.24,0.23h2.63c0.26,0,0.48,0.21,0.48,0.46v1.84c0,0.25-0.22,0.46-0.48,0.46h-2.63
			c-0.14,0-0.24,0.09-0.24,0.23v4.18c0,0.87,0.53,1.38,1.44,1.38h1.67c0.26,0,0.48,0.21,0.48,0.46v1.95c0,0.25-0.22,0.46-0.48,0.46
			h-1.91C40.57,162.36,39.23,161.05,39.23,158.15z"/>
		<path class="st0" d="M46.94,158.54c0-0.25,0.19-0.41,0.48-0.41h2.06c0.29,0,0.48,0.16,0.48,0.41c0,0.99,0.62,1.47,1.89,1.47
			c1.17,0,1.77-0.34,1.77-1.01c0-0.6-0.53-0.87-2.42-1.29c-2.61-0.55-3.83-1.77-3.83-3.77c0-1.98,1.84-3.33,4.47-3.33
			c2.78,0,4.55,1.4,4.55,3.63c0,0.25-0.19,0.41-0.48,0.41h-1.94c-0.29,0-0.48-0.16-0.48-0.41c0-0.71-0.57-1.1-1.63-1.1
			c-0.86,0-1.41,0.35-1.41,0.9c0,0.57,0.43,0.8,2.44,1.29c2.87,0.67,3.83,1.56,3.83,3.61c0,2.3-1.82,3.68-4.88,3.68
			C48.75,162.61,46.94,161.09,46.94,158.54z"/>
		<path class="st0" d="M59.73,160.79c-0.77-1.01-1.05-2.16-1.05-4.19c0-2.02,0.29-3.17,1.05-4.19c0.84-1.13,2.32-1.82,4-1.82
			c1.46,0,2.63,0.35,3.45,1.03c0.93,0.78,1.46,2.05,1.46,3.47c0,0.28-0.17,0.46-0.41,0.46h-2.2c-0.26,0-0.43-0.14-0.45-0.37
			c-0.1-0.64-0.24-0.99-0.5-1.24c-0.29-0.25-0.72-0.37-1.34-0.37c-0.74,0-1.2,0.16-1.51,0.55c-0.29,0.39-0.38,0.99-0.38,2.46
			s0.1,2.07,0.38,2.46c0.31,0.39,0.77,0.55,1.51,0.55c0.67,0,1.05-0.09,1.32-0.3c0.29-0.23,0.41-0.53,0.53-1.36
			c0.02-0.21,0.19-0.32,0.45-0.32h2.2c0.24,0,0.41,0.18,0.41,0.46c0,1.29-0.41,2.41-1.12,3.17c-0.84,0.87-2.15,1.33-3.78,1.33
			C62.05,162.61,60.57,161.92,59.73,160.79z"/>
		<path class="st0" d="M71.12,161.9v-15.43c0-0.25,0.22-0.46,0.48-0.46h2.15c0.26,0,0.48,0.21,0.48,0.46v4.14
			c0,0.3,0.17,0.53,0.45,0.53c0.24,0,0.86-0.53,2.06-0.53c2.58,0,4.19,1.61,4.19,4.25v7.04c0,0.25-0.22,0.46-0.48,0.46H78.3
			c-0.26,0-0.48-0.21-0.48-0.46v-6.81c0-0.99-0.65-1.59-1.79-1.59c-1.12,0-1.79,0.57-1.79,1.49v6.9c0,0.25-0.22,0.46-0.48,0.46H71.6
			C71.33,162.36,71.12,162.15,71.12,161.9z"/>
		<path class="st0" d="M83.29,158.82c0-1.79,1.36-3.59,4.12-3.59h2.44c0.14,0,0.24-0.09,0.24-0.23v-0.37c0-0.94-0.79-1.4-1.84-1.4
			c-0.5,0-1.48,0.11-1.65,0.76c-0.1,0.39-0.22,0.44-0.65,0.44h-1.72c-0.26,0-0.48-0.21-0.48-0.46c0-1.75,1.75-3.36,4.62-3.36
			c2.89,0,4.79,1.49,4.79,4.16v7.13c0,0.25-0.22,0.46-0.48,0.46h-1.2c-0.14,0-0.29-0.05-0.33-0.16c-0.1-0.18-0.26-0.46-0.55-0.46
			c-0.43,0-1.08,0.87-3.11,0.87C85.02,162.61,83.29,161.23,83.29,158.82z M90.21,158.45v-0.55c0-0.14-0.1-0.23-0.24-0.23h-2.23
			c-1.03,0-1.41,0.53-1.41,1.15c0,0.85,0.72,1.22,1.58,1.22C89.16,160.04,90.21,159.64,90.21,158.45z"/>
		<path class="st0" d="M97.21,161.9v-7.98c0-0.14-0.1-0.23-0.24-0.23h-1.91c-0.26,0-0.48-0.21-0.48-0.46v-1.84
			c0-0.25,0.22-0.46,0.48-0.46h1.91c0.14,0,0.24-0.09,0.24-0.23v-0.48c0-2.39,2.06-4.21,4.55-4.21h1.44c0.26,0,0.48,0.21,0.48,0.46
			v2.07c0,0.25-0.22,0.46-0.48,0.46h-1.44c-0.79,0-1.44,0.51-1.44,1.26v0.44c0,0.14,0.1,0.23,0.24,0.23h2.87
			c0.26,0,0.48,0.21,0.48,0.46v1.84c0,0.25-0.22,0.46-0.48,0.46h-2.87c-0.14,0-0.24,0.09-0.24,0.23v7.98c0,0.25-0.22,0.46-0.48,0.46
			h-2.15C97.43,162.36,97.21,162.15,97.21,161.9z"/>
		<path class="st0" d="M107.09,158.15v-4.23c0-0.14-0.1-0.23-0.24-0.23h-1.87c-0.26,0-0.48-0.21-0.48-0.46v-1.84
			c0-0.25,0.22-0.46,0.48-0.46h1.87c0.14,0,0.24-0.09,0.24-0.23v-3.52c0-0.25,0.22-0.46,0.48-0.46h2.15c0.26,0,0.48,0.21,0.48,0.46
			v3.52c0,0.14,0.1,0.23,0.24,0.23h2.63c0.26,0,0.48,0.21,0.48,0.46v1.84c0,0.25-0.22,0.46-0.48,0.46h-2.63
			c-0.14,0-0.24,0.09-0.24,0.23v4.18c0,0.87,0.53,1.38,1.44,1.38h1.67c0.26,0,0.48,0.21,0.48,0.46v1.95c0,0.25-0.21,0.46-0.48,0.46
			h-1.91C108.43,162.36,107.09,161.05,107.09,158.15z"/>
		<path class="st0" d="M114.8,158.54c0-0.25,0.19-0.41,0.48-0.41h2.06c0.29,0,0.48,0.16,0.48,0.41c0,0.99,0.62,1.47,1.89,1.47
			c1.17,0,1.77-0.34,1.77-1.01c0-0.6-0.53-0.87-2.42-1.29c-2.61-0.55-3.83-1.77-3.83-3.77c0-1.98,1.84-3.33,4.47-3.33
			c2.78,0,4.55,1.4,4.55,3.63c0,0.25-0.19,0.41-0.48,0.41h-1.94c-0.29,0-0.48-0.16-0.48-0.41c0-0.71-0.57-1.1-1.63-1.1
			c-0.86,0-1.41,0.35-1.41,0.9c0,0.57,0.43,0.8,2.44,1.29c2.87,0.67,3.83,1.56,3.83,3.61c0,2.3-1.82,3.68-4.88,3.68
			C116.61,162.61,114.8,161.09,114.8,158.54z"/>
		<path class="st0" d="M126.85,148.86v-2.48c0-0.18,0.17-0.37,0.38-0.37h2.58c0.22,0,0.38,0.18,0.38,0.37v2.48
			c0,0.21-0.17,0.37-0.38,0.37h-2.58C127.02,149.23,126.85,149.07,126.85,148.86z M129.7,162.36h-2.34c-0.22,0-0.38-0.18-0.38-0.37
			v-10.76c0-0.18,0.17-0.37,0.38-0.37h2.34c0.21,0,0.38,0.18,0.38,0.37v10.76C130.08,162.17,129.91,162.36,129.7,162.36z"/>
		<path class="st0" d="M133.19,161.9v-10.58c0-0.25,0.22-0.46,0.48-0.46h1.2c0.19,0,0.31,0.05,0.43,0.16
			c0.19,0.25,0.31,0.6,0.65,0.6c0.57,0,0.96-1.01,2.87-1.01c2.58,0,4.19,1.61,4.19,4.25v7.04c0,0.25-0.21,0.46-0.48,0.46h-2.15
			c-0.26,0-0.48-0.21-0.48-0.46v-6.81c0-1.01-0.67-1.59-1.79-1.59c-1.12,0-1.79,0.57-1.79,1.49v6.9c0,0.25-0.21,0.46-0.48,0.46
			h-2.15C133.41,162.36,133.19,162.15,133.19,161.9z"/>
		<path class="st0" d="M147.06,161.9v-7.98c0-0.14-0.1-0.23-0.24-0.23h-1.91c-0.26,0-0.48-0.21-0.48-0.46v-1.84
			c0-0.25,0.22-0.46,0.48-0.46h1.91c0.14,0,0.24-0.09,0.24-0.23v-0.48c0-2.39,2.06-4.21,4.55-4.21h1.44c0.26,0,0.48,0.21,0.48,0.46
			v2.07c0,0.25-0.22,0.46-0.48,0.46h-1.44c-0.79,0-1.44,0.51-1.44,1.26v0.44c0,0.14,0.1,0.23,0.24,0.23h2.87
			c0.26,0,0.48,0.21,0.48,0.46v1.84c0,0.25-0.21,0.46-0.48,0.46h-2.87c-0.14,0-0.24,0.09-0.24,0.23v7.98c0,0.25-0.22,0.46-0.48,0.46
			h-2.15C147.28,162.36,147.06,162.15,147.06,161.9z"/>
		<path class="st0" d="M155.87,160.79c-0.77-1.01-1.05-2.16-1.05-4.19c0-2.02,0.29-3.17,1.05-4.19c0.84-1.13,2.32-1.82,4-1.82
			c1.67,0,3.16,0.69,4,1.82c0.77,1.01,1.05,2.16,1.05,4.19c0,2.02-0.29,3.17-1.05,4.19c-0.84,1.13-2.32,1.82-4,1.82
			C158.19,162.61,156.7,161.92,155.87,160.79z M161.37,159.07c0.29-0.39,0.38-0.99,0.38-2.46s-0.1-2.07-0.38-2.46
			c-0.31-0.39-0.74-0.55-1.51-0.55c-0.74,0-1.2,0.16-1.51,0.55c-0.29,0.39-0.38,0.99-0.38,2.46s0.1,2.07,0.38,2.46
			c0.31,0.39,0.77,0.55,1.51,0.55C160.63,159.62,161.06,159.46,161.37,159.07z"/>
		<path class="st0" d="M167.59,161.9v-10.58c0-0.25,0.21-0.46,0.48-0.46h1.2c0.19,0,0.43,0.12,0.5,0.3
			c0.14,0.39,0.24,0.97,0.65,0.97c0.74,0,1.05-1.26,3.42-1.26h0.81c0.26,0,0.48,0.21,0.48,0.46v2.18c0,0.25-0.22,0.46-0.48,0.46
			h-0.84c-1.79,0-3.11,0.8-3.11,2.55v5.38c0,0.25-0.22,0.46-0.48,0.46h-2.15C167.8,162.36,167.59,162.15,167.59,161.9z"/>
		<path class="st0" d="M177.04,161.9v-10.58c0-0.25,0.22-0.46,0.48-0.46h1.2c0.21,0,0.33,0.07,0.43,0.16
			c0.19,0.16,0.31,0.39,0.65,0.39c0.65,0,1.12-0.8,2.7-0.8c1.08,0,1.99,0.3,2.66,0.85c0.31,0.23,0.77,0.23,1.08,0
			c0.43-0.3,1.05-0.85,2.63-0.85c2.49,0,4.02,1.61,4.02,4.25v7.04c0,0.25-0.21,0.46-0.48,0.46h-2.15c-0.26,0-0.48-0.21-0.48-0.46
			v-6.81c0-0.99-0.6-1.59-1.63-1.59c-1.03,0-1.63,0.57-1.63,1.49v6.9c0,0.25-0.22,0.46-0.48,0.46h-2.15c-0.26,0-0.48-0.21-0.48-0.46
			v-6.81c0-0.99-0.6-1.59-1.63-1.59s-1.63,0.57-1.63,1.49v6.9c0,0.25-0.21,0.46-0.48,0.46h-2.15
			C177.25,162.36,177.04,162.15,177.04,161.9z"/>
		<path class="st0" d="M195.24,158.82c0-1.79,1.36-3.59,4.12-3.59h2.44c0.14,0,0.24-0.09,0.24-0.23v-0.37c0-0.94-0.79-1.4-1.84-1.4
			c-0.5,0-1.48,0.11-1.65,0.76c-0.1,0.39-0.22,0.44-0.65,0.44h-1.72c-0.26,0-0.48-0.21-0.48-0.46c0-1.75,1.75-3.36,4.62-3.36
			c2.89,0,4.79,1.49,4.79,4.16v7.13c0,0.25-0.21,0.46-0.48,0.46h-1.2c-0.14,0-0.29-0.05-0.33-0.16c-0.1-0.18-0.26-0.46-0.55-0.46
			c-0.43,0-1.08,0.87-3.11,0.87C196.96,162.61,195.24,161.23,195.24,158.82z M202.15,158.45v-0.55c0-0.14-0.1-0.23-0.24-0.23h-2.23
			c-1.03,0-1.41,0.53-1.41,1.15c0,0.85,0.72,1.22,1.58,1.22C201.1,160.04,202.15,159.64,202.15,158.45z"/>
		<path class="st0" d="M208.99,158.15v-4.23c0-0.14-0.1-0.23-0.24-0.23h-1.87c-0.26,0-0.48-0.21-0.48-0.46v-1.84
			c0-0.25,0.22-0.46,0.48-0.46h1.87c0.14,0,0.24-0.09,0.24-0.23v-3.52c0-0.25,0.22-0.46,0.48-0.46h2.15c0.26,0,0.48,0.21,0.48,0.46
			v3.52c0,0.14,0.1,0.23,0.24,0.23h2.63c0.26,0,0.48,0.21,0.48,0.46v1.84c0,0.25-0.21,0.46-0.48,0.46h-2.63
			c-0.14,0-0.24,0.09-0.24,0.23v4.18c0,0.87,0.53,1.38,1.44,1.38h1.67c0.26,0,0.48,0.21,0.48,0.46v1.95c0,0.25-0.22,0.46-0.48,0.46
			h-1.91C210.33,162.36,208.99,161.05,208.99,158.15z"/>
		<path class="st0" d="M217.6,148.86v-2.48c0-0.18,0.17-0.37,0.38-0.37h2.58c0.22,0,0.38,0.18,0.38,0.37v2.48
			c0,0.21-0.17,0.37-0.38,0.37h-2.58C217.77,149.23,217.6,149.07,217.6,148.86z M220.45,162.36h-2.34c-0.22,0-0.38-0.18-0.38-0.37
			v-10.76c0-0.18,0.17-0.37,0.38-0.37h2.34c0.21,0,0.38,0.18,0.38,0.37v10.76C220.83,162.17,220.67,162.36,220.45,162.36z"/>
		<path class="st0" d="M223.94,161.9v-15.43c0-0.25,0.22-0.46,0.48-0.46h2.15c0.26,0,0.48,0.21,0.48,0.46v8.28
			c0,0.14,0.17,0.16,0.24,0.07l3.01-3.66c0.12-0.14,0.24-0.3,0.6-0.3h2.37c0.33,0,0.5,0.23,0.5,0.46c0,0.11-0.05,0.21-0.12,0.3
			l-3.8,4.37c-0.21,0.25-0.21,0.39,0.02,0.69l3.9,4.92c0.07,0.09,0.12,0.21,0.12,0.32c0,0.23-0.19,0.44-0.5,0.44h-2.49
			c-0.33,0-0.57-0.28-0.67-0.41l-2.94-3.91c-0.07-0.09-0.24-0.07-0.24,0.07v3.79c0,0.25-0.21,0.46-0.48,0.46h-2.15
			C224.16,162.36,223.94,162.15,223.94,161.9z"/>
	</g>
	<g>
		<path class="st0" d="M520.49,334.95l-89.14-51.64l85.71-48.91c1.06-0.63,1.94-2.16,1.94-3.4v-25.91c0-1.49-1.23-1.87-2.3-1.24
			l-108.32,63.41v-60.5c0-1.24-1.01-2.25-2.25-2.25h-22.78c-1.24,0-2.25,1.01-2.25,2.25v155.84c0,1.24,1.01,2.25,2.25,2.25h22.78
			c1.24,0,2.25-1.01,2.25-2.25v-63.38l111.42,66.13c1.07,0.63,2.58,0.24,2.58-1.28l0.05-25.74
			C522.43,336.78,521.56,335.58,520.49,334.95"/>
		<path class="st0" d="M423.93,484.24l27.84-55.98l27.65,55.98H423.93z M547.72,555.59l-78.85-155.94c-0.56-1.11-1.6-2.01-3.04-2.01
			h-25.68c-1.49,0-2.73,0.98-3.3,2l-81.03,155.8c-0.57,1.1,0.04,2.54,1.65,2.54h27.23c1.23,0,2.7-0.91,3.26-2.02l23.65-46.71h79.67
			l23.41,46.71c0.55,1.11,2.01,2.02,3.25,2.02h28.17C547.6,557.98,548.28,556.7,547.72,555.59"/>
		<path class="st0" d="M491.75,4.33c0-1.24,1.01-2.25,2.25-2.25h22.78c1.24,0,2.25,1.01,2.25,2.25v155.84
			c0,1.24-1.01,2.26-2.25,2.26H494c-1.24,0-2.25-1.02-2.25-2.26V4.33z"/>
		<path class="st0" d="M476.62,69.95h-68.25V4.34c0-1.24-1.01-2.25-2.25-2.25h-22.78c-1.23,0-2.25,1.01-2.25,2.25v65.62h-68.24
			c-1.24,0-2.26,1.01-2.26,2.25v20.11c0,1.24,1.02,2.25,2.26,2.25h68.24v65.61c0,1.24,1.02,2.25,2.25,2.25h22.78
			c1.24,0,2.25-1.02,2.25-2.25V94.57h68.25c1.23,0,2.25-1.01,2.25-2.25V72.21C478.87,70.97,477.86,69.95,476.62,69.95"/>
	</g>
</g>
</svg>
